<svg xmlns="http://www.w3.org/2000/svg" width="1100" height="330" viewBox="0 0 1100 330" role="img" aria-label="Current forks by fork creation date">
<rect width="100%" height="100%" fill="#0d1117" rx="10"/>
<text x="72" y="27" fill="#f0f6fc" font-family="system-ui,sans-serif" font-size="18" font-weight="600">Current forks by fork creation date</text>
<text x="72" y="47" fill="#8b949e" font-family="system-ui,sans-serif" font-size="12">Reconstructed from GitHub fork creation timestamps</text>
<line x1="72" x2="1075" y1="276.0" y2="276.0" stroke="#21262d"/>
<text x="64" y="280.0" text-anchor="end" fill="#8b949e" font-family="system-ui,sans-serif" font-size="11">0</text>
<line x1="72" x2="1075" y1="221.5" y2="221.5" stroke="#21262d"/>
<text x="64" y="225.5" text-anchor="end" fill="#8b949e" font-family="system-ui,sans-serif" font-size="11">1</text>
<line x1="72" x2="1075" y1="167.0" y2="167.0" stroke="#21262d"/>
<text x="64" y="171.0" text-anchor="end" fill="#8b949e" font-family="system-ui,sans-serif" font-size="11">3</text>
<line x1="72" x2="1075" y1="112.5" y2="112.5" stroke="#21262d"/>
<text x="64" y="116.5" text-anchor="end" fill="#8b949e" font-family="system-ui,sans-serif" font-size="11">4</text>
<line x1="72" x2="1075" y1="58.0" y2="58.0" stroke="#21262d"/>
<text x="64" y="62.0" text-anchor="end" fill="#8b949e" font-family="system-ui,sans-serif" font-size="11">5</text>
<text x="72.0" y="306" text-anchor="middle" fill="#8b949e" font-family="system-ui,sans-serif" font-size="10">2026-06-29</text>
<text x="212.0" y="306" text-anchor="middle" fill="#8b949e" font-family="system-ui,sans-serif" font-size="10">2026-07-11</text>
<text x="363.6" y="306" text-anchor="middle" fill="#8b949e" font-family="system-ui,sans-serif" font-size="10">2026-07-24</text>
<text x="503.5" y="306" text-anchor="middle" fill="#8b949e" font-family="system-ui,sans-serif" font-size="10">2026-08-05</text>
<text x="643.5" y="306" text-anchor="middle" fill="#8b949e" font-family="system-ui,sans-serif" font-size="10">2026-08-17</text>
<text x="783.4" y="306" text-anchor="middle" fill="#8b949e" font-family="system-ui,sans-serif" font-size="10">2026-08-29</text>
<text x="935.0" y="306" text-anchor="middle" fill="#8b949e" font-family="system-ui,sans-serif" font-size="10">2026-09-11</text>
<text x="1075.0" y="306" text-anchor="middle" fill="#8b949e" font-family="system-ui,sans-serif" font-size="10">2026-09-23</text>
<polyline points="83.7,235.6 95.3,235.6 107.0,195.3 118.7,154.9 130.3,154.9 142.0,154.9 153.6,154.9 165.3,154.9 177.0,114.5 188.6,114.5 200.3,114.5 212.0,114.5 223.6,114.5 235.3,114.5 246.9,114.5 258.6,114.5 270.3,114.5 281.9,114.5 293.6,114.5 305.3,114.5 316.9,114.5 328.6,114.5 340.2,114.5 351.9,114.5 363.6,114.5 375.2,114.5 386.9,114.5 398.6,114.5 410.2,114.5 421.9,114.5 433.5,114.5 445.2,114.5 456.9,114.5 468.5,114.5 480.2,114.5 491.9,74.1 503.5,74.1 515.2,74.1 526.8,74.1 538.5,74.1 550.2,74.1 561.8,74.1 573.5,74.1 585.2,74.1 596.8,74.1 608.5,74.1 620.2,74.1 631.8,74.1 643.5,74.1 655.1,74.1 666.8,74.1 678.5,74.1 690.1,74.1 701.8,74.1 713.5,74.1 725.1,74.1 736.8,74.1 748.4,74.1 760.1,74.1 771.8,74.1 783.4,74.1 795.1,74.1 806.8,74.1 818.4,74.1 830.1,74.1 841.7,74.1 853.4,74.1 865.1,74.1 876.7,74.1 888.4,74.1 900.1,74.1 911.7,74.1 923.4,74.1 935.0,74.1 946.7,74.1 958.4,74.1 970.0,74.1 981.7,74.1 993.4,74.1 1005.0,74.1 1016.7,74.1 1028.3,74.1 1040.0,74.1 1051.7,74.1 1063.3,74.1 1075.0,74.1" fill="none" stroke="#2f81f7" stroke-width="2" stroke-linecap="round" stroke-linejoin="round"/>
<line x1="72" x2="96" y1="322" y2="322" stroke="#2f81f7" stroke-width="3"/>
<text x="102" y="326" fill="#c9d1d9" font-family="system-ui,sans-serif" font-size="11">Forks</text>
</svg>
