<svg xmlns="http://www.w3.org/2000/svg" width="1100" height="330" viewBox="0 0 1100 330" role="img" aria-label="Current forks by fork creation date">
<rect width="100%" height="100%" fill="#0d1117" rx="10"/>
<text x="72" y="27" fill="#f0f6fc" font-family="system-ui,sans-serif" font-size="18" font-weight="600">Current forks by fork creation date</text>
<text x="72" y="47" fill="#8b949e" font-family="system-ui,sans-serif" font-size="12">Reconstructed from GitHub fork creation timestamps</text>
<line x1="72" x2="1075" y1="276.0" y2="276.0" stroke="#21262d"/>
<text x="64" y="280.0" text-anchor="end" fill="#8b949e" font-family="system-ui,sans-serif" font-size="11">0</text>
<line x1="72" x2="1075" y1="221.5" y2="221.5" stroke="#21262d"/>
<text x="64" y="225.5" text-anchor="end" fill="#8b949e" font-family="system-ui,sans-serif" font-size="11">1</text>
<line x1="72" x2="1075" y1="167.0" y2="167.0" stroke="#21262d"/>
<text x="64" y="171.0" text-anchor="end" fill="#8b949e" font-family="system-ui,sans-serif" font-size="11">3</text>
<line x1="72" x2="1075" y1="112.5" y2="112.5" stroke="#21262d"/>
<text x="64" y="116.5" text-anchor="end" fill="#8b949e" font-family="system-ui,sans-serif" font-size="11">4</text>
<line x1="72" x2="1075" y1="58.0" y2="58.0" stroke="#21262d"/>
<text x="64" y="62.0" text-anchor="end" fill="#8b949e" font-family="system-ui,sans-serif" font-size="11">5</text>
<text x="72.0" y="306" text-anchor="middle" fill="#8b949e" font-family="system-ui,sans-serif" font-size="10">2026-06-29</text>
<text x="217.9" y="306" text-anchor="middle" fill="#8b949e" font-family="system-ui,sans-serif" font-size="10">2026-07-07</text>
<text x="363.8" y="306" text-anchor="middle" fill="#8b949e" font-family="system-ui,sans-serif" font-size="10">2026-07-15</text>
<text x="509.7" y="306" text-anchor="middle" fill="#8b949e" font-family="system-ui,sans-serif" font-size="10">2026-07-23</text>
<text x="637.3" y="306" text-anchor="middle" fill="#8b949e" font-family="system-ui,sans-serif" font-size="10">2026-07-30</text>
<text x="783.2" y="306" text-anchor="middle" fill="#8b949e" font-family="system-ui,sans-serif" font-size="10">2026-08-07</text>
<text x="929.1" y="306" text-anchor="middle" fill="#8b949e" font-family="system-ui,sans-serif" font-size="10">2026-08-15</text>
<text x="1075.0" y="306" text-anchor="middle" fill="#8b949e" font-family="system-ui,sans-serif" font-size="10">2026-08-23</text>
<polyline points="90.2,235.6 108.5,235.6 126.7,195.3 144.9,154.9 163.2,154.9 181.4,154.9 199.7,154.9 217.9,154.9 236.1,114.5 254.4,114.5 272.6,114.5 290.8,114.5 309.1,114.5 327.3,114.5 345.5,114.5 363.8,114.5 382.0,114.5 400.3,114.5 418.5,114.5 436.7,114.5 455.0,114.5 473.2,114.5 491.4,114.5 509.7,114.5 527.9,114.5 546.1,114.5 564.4,114.5 582.6,114.5 600.9,114.5 619.1,114.5 637.3,114.5 655.6,114.5 673.8,114.5 692.0,114.5 710.3,114.5 728.5,74.1 746.7,74.1 765.0,74.1 783.2,74.1 801.5,74.1 819.7,74.1 837.9,74.1 856.2,74.1 874.4,74.1 892.6,74.1 910.9,74.1 929.1,74.1 947.3,74.1 965.6,74.1 983.8,74.1 1002.1,74.1 1020.3,74.1 1038.5,74.1 1056.8,74.1 1075.0,74.1" fill="none" stroke="#2f81f7" stroke-width="2" stroke-linecap="round" stroke-linejoin="round"/>
<line x1="72" x2="96" y1="322" y2="322" stroke="#2f81f7" stroke-width="3"/>
<text x="102" y="326" fill="#c9d1d9" font-family="system-ui,sans-serif" font-size="11">Forks</text>
</svg>
