<svg xmlns="http://www.w3.org/2000/svg" width="1100" height="330" viewBox="0 0 1100 330" role="img" aria-label="Current stars by star date">
<rect width="100%" height="100%" fill="#0d1117" rx="10"/>
<text x="72" y="27" fill="#f0f6fc" font-family="system-ui,sans-serif" font-size="18" font-weight="600">Current stars by star date</text>
<text x="72" y="47" fill="#8b949e" font-family="system-ui,sans-serif" font-size="12">Reconstructed from GitHub stargazer timestamps</text>
<line x1="72" x2="1075" y1="276.0" y2="276.0" stroke="#21262d"/>
<text x="64" y="280.0" text-anchor="end" fill="#8b949e" font-family="system-ui,sans-serif" font-size="11">0</text>
<line x1="72" x2="1075" y1="221.5" y2="221.5" stroke="#21262d"/>
<text x="64" y="225.5" text-anchor="end" fill="#8b949e" font-family="system-ui,sans-serif" font-size="11">5</text>
<line x1="72" x2="1075" y1="167.0" y2="167.0" stroke="#21262d"/>
<text x="64" y="171.0" text-anchor="end" fill="#8b949e" font-family="system-ui,sans-serif" font-size="11">9</text>
<line x1="72" x2="1075" y1="112.5" y2="112.5" stroke="#21262d"/>
<text x="64" y="116.5" text-anchor="end" fill="#8b949e" font-family="system-ui,sans-serif" font-size="11">14</text>
<line x1="72" x2="1075" y1="58.0" y2="58.0" stroke="#21262d"/>
<text x="64" y="62.0" text-anchor="end" fill="#8b949e" font-family="system-ui,sans-serif" font-size="11">18</text>
<text x="72.0" y="306" text-anchor="middle" fill="#8b949e" font-family="system-ui,sans-serif" font-size="10">2026-06-29</text>
<text x="213.0" y="306" text-anchor="middle" fill="#8b949e" font-family="system-ui,sans-serif" font-size="10">2026-07-08</text>
<text x="354.1" y="306" text-anchor="middle" fill="#8b949e" font-family="system-ui,sans-serif" font-size="10">2026-07-17</text>
<text x="495.1" y="306" text-anchor="middle" fill="#8b949e" font-family="system-ui,sans-serif" font-size="10">2026-07-26</text>
<text x="651.9" y="306" text-anchor="middle" fill="#8b949e" font-family="system-ui,sans-serif" font-size="10">2026-08-05</text>
<text x="792.9" y="306" text-anchor="middle" fill="#8b949e" font-family="system-ui,sans-serif" font-size="10">2026-08-14</text>
<text x="934.0" y="306" text-anchor="middle" fill="#8b949e" font-family="system-ui,sans-serif" font-size="10">2026-08-23</text>
<text x="1075.0" y="306" text-anchor="middle" fill="#8b949e" font-family="system-ui,sans-serif" font-size="10">2026-09-01</text>
<polyline points="87.7,252.3 103.3,228.5 119.0,228.5 134.7,121.6 150.4,121.6 166.0,109.8 181.7,109.8 197.4,109.8 213.0,97.9 228.7,86.0 244.4,86.0 260.1,86.0 275.7,86.0 291.4,86.0 307.1,74.1 322.8,74.1 338.4,74.1 354.1,74.1 369.8,74.1 385.4,74.1 401.1,74.1 416.8,74.1 432.5,74.1 448.1,74.1 463.8,74.1 479.5,74.1 495.1,74.1 510.8,74.1 526.5,74.1 542.2,74.1 557.8,74.1 573.5,74.1 589.2,74.1 604.8,74.1 620.5,74.1 636.2,74.1 651.9,74.1 667.5,74.1 683.2,74.1 698.9,74.1 714.5,74.1 730.2,74.1 745.9,74.1 761.6,74.1 777.2,74.1 792.9,74.1 808.6,74.1 824.2,74.1 839.9,74.1 855.6,74.1 871.3,74.1 886.9,74.1 902.6,74.1 918.3,74.1 934.0,74.1 949.6,74.1 965.3,74.1 981.0,74.1 996.6,74.1 1012.3,74.1 1028.0,74.1 1043.7,74.1 1059.3,74.1 1075.0,74.1" fill="none" stroke="#2f81f7" stroke-width="2" stroke-linecap="round" stroke-linejoin="round"/>
<line x1="72" x2="96" y1="322" y2="322" stroke="#2f81f7" stroke-width="3"/>
<text x="102" y="326" fill="#c9d1d9" font-family="system-ui,sans-serif" font-size="11">Stars</text>
</svg>
