<svg xmlns="http://www.w3.org/2000/svg" width="1100" height="330" viewBox="0 0 1100 330" role="img" aria-label="Current stars by star date">
<rect width="100%" height="100%" fill="#0d1117" rx="10"/>
<text x="72" y="27" fill="#f0f6fc" font-family="system-ui,sans-serif" font-size="18" font-weight="600">Current stars by star date</text>
<text x="72" y="47" fill="#8b949e" font-family="system-ui,sans-serif" font-size="12">Reconstructed from GitHub stargazer timestamps</text>
<line x1="72" x2="1075" y1="276.0" y2="276.0" stroke="#21262d"/>
<text x="64" y="280.0" text-anchor="end" fill="#8b949e" font-family="system-ui,sans-serif" font-size="11">0</text>
<line x1="72" x2="1075" y1="221.5" y2="221.5" stroke="#21262d"/>
<text x="64" y="225.5" text-anchor="end" fill="#8b949e" font-family="system-ui,sans-serif" font-size="11">5</text>
<line x1="72" x2="1075" y1="167.0" y2="167.0" stroke="#21262d"/>
<text x="64" y="171.0" text-anchor="end" fill="#8b949e" font-family="system-ui,sans-serif" font-size="11">9</text>
<line x1="72" x2="1075" y1="112.5" y2="112.5" stroke="#21262d"/>
<text x="64" y="116.5" text-anchor="end" fill="#8b949e" font-family="system-ui,sans-serif" font-size="11">14</text>
<line x1="72" x2="1075" y1="58.0" y2="58.0" stroke="#21262d"/>
<text x="64" y="62.0" text-anchor="end" fill="#8b949e" font-family="system-ui,sans-serif" font-size="11">18</text>
<text x="72.0" y="306" text-anchor="middle" fill="#8b949e" font-family="system-ui,sans-serif" font-size="10">2026-06-29</text>
<text x="218.8" y="306" text-anchor="middle" fill="#8b949e" font-family="system-ui,sans-serif" font-size="10">2026-07-11</text>
<text x="353.3" y="306" text-anchor="middle" fill="#8b949e" font-family="system-ui,sans-serif" font-size="10">2026-07-22</text>
<text x="500.1" y="306" text-anchor="middle" fill="#8b949e" font-family="system-ui,sans-serif" font-size="10">2026-08-03</text>
<text x="646.9" y="306" text-anchor="middle" fill="#8b949e" font-family="system-ui,sans-serif" font-size="10">2026-08-15</text>
<text x="793.7" y="306" text-anchor="middle" fill="#8b949e" font-family="system-ui,sans-serif" font-size="10">2026-08-27</text>
<text x="928.2" y="306" text-anchor="middle" fill="#8b949e" font-family="system-ui,sans-serif" font-size="10">2026-09-07</text>
<text x="1075.0" y="306" text-anchor="middle" fill="#8b949e" font-family="system-ui,sans-serif" font-size="10">2026-09-19</text>
<polyline points="84.2,252.3 96.5,228.5 108.7,228.5 120.9,121.6 133.2,121.6 145.4,109.8 157.6,109.8 169.9,109.8 182.1,97.9 194.3,86.0 206.5,86.0 218.8,86.0 231.0,86.0 243.2,86.0 255.5,74.1 267.7,74.1 279.9,74.1 292.2,74.1 304.4,74.1 316.6,74.1 328.9,74.1 341.1,74.1 353.3,74.1 365.6,74.1 377.8,74.1 390.0,74.1 402.3,74.1 414.5,74.1 426.7,74.1 439.0,74.1 451.2,74.1 463.4,74.1 475.6,74.1 487.9,74.1 500.1,74.1 512.3,74.1 524.6,74.1 536.8,74.1 549.0,74.1 561.3,74.1 573.5,74.1 585.7,74.1 598.0,74.1 610.2,74.1 622.4,74.1 634.7,74.1 646.9,74.1 659.1,74.1 671.4,74.1 683.6,74.1 695.8,74.1 708.0,74.1 720.3,74.1 732.5,74.1 744.7,74.1 757.0,74.1 769.2,74.1 781.4,74.1 793.7,74.1 805.9,74.1 818.1,74.1 830.4,74.1 842.6,74.1 854.8,74.1 867.1,74.1 879.3,74.1 891.5,74.1 903.8,74.1 916.0,74.1 928.2,74.1 940.5,74.1 952.7,74.1 964.9,74.1 977.1,74.1 989.4,74.1 1001.6,74.1 1013.8,74.1 1026.1,74.1 1038.3,74.1 1050.5,74.1 1062.8,74.1 1075.0,74.1" fill="none" stroke="#2f81f7" stroke-width="2" stroke-linecap="round" stroke-linejoin="round"/>
<line x1="72" x2="96" y1="322" y2="322" stroke="#2f81f7" stroke-width="3"/>
<text x="102" y="326" fill="#c9d1d9" font-family="system-ui,sans-serif" font-size="11">Stars</text>
</svg>
