<svg xmlns="http://www.w3.org/2000/svg" width="1100" height="330" viewBox="0 0 1100 330" role="img" aria-label="All-time tracked traffic">
<rect width="100%" height="100%" fill="#0d1117" rx="10"/>
<text x="72" y="27" fill="#f0f6fc" font-family="system-ui,sans-serif" font-size="18" font-weight="600">All-time tracked traffic</text>
<text x="72" y="47" fill="#8b949e" font-family="system-ui,sans-serif" font-size="12">Cumulative stored views and clones since 2026-07-29</text>
<line x1="72" x2="1075" y1="276.0" y2="276.0" stroke="#21262d"/>
<text x="64" y="280.0" text-anchor="end" fill="#8b949e" font-family="system-ui,sans-serif" font-size="11">0</text>
<line x1="72" x2="1075" y1="221.5" y2="221.5" stroke="#21262d"/>
<text x="64" y="225.5" text-anchor="end" fill="#8b949e" font-family="system-ui,sans-serif" font-size="11">238</text>
<line x1="72" x2="1075" y1="167.0" y2="167.0" stroke="#21262d"/>
<text x="64" y="171.0" text-anchor="end" fill="#8b949e" font-family="system-ui,sans-serif" font-size="11">476</text>
<line x1="72" x2="1075" y1="112.5" y2="112.5" stroke="#21262d"/>
<text x="64" y="116.5" text-anchor="end" fill="#8b949e" font-family="system-ui,sans-serif" font-size="11">714</text>
<line x1="72" x2="1075" y1="58.0" y2="58.0" stroke="#21262d"/>
<text x="64" y="62.0" text-anchor="end" fill="#8b949e" font-family="system-ui,sans-serif" font-size="11">953</text>
<text x="72.0" y="306" text-anchor="middle" fill="#8b949e" font-family="system-ui,sans-serif" font-size="10">2026-07-29</text>
<text x="215.3" y="306" text-anchor="middle" fill="#8b949e" font-family="system-ui,sans-serif" font-size="10">2026-08-03</text>
<text x="358.6" y="306" text-anchor="middle" fill="#8b949e" font-family="system-ui,sans-serif" font-size="10">2026-08-08</text>
<text x="501.9" y="306" text-anchor="middle" fill="#8b949e" font-family="system-ui,sans-serif" font-size="10">2026-08-13</text>
<text x="645.1" y="306" text-anchor="middle" fill="#8b949e" font-family="system-ui,sans-serif" font-size="10">2026-08-18</text>
<text x="788.4" y="306" text-anchor="middle" fill="#8b949e" font-family="system-ui,sans-serif" font-size="10">2026-08-23</text>
<text x="931.7" y="306" text-anchor="middle" fill="#8b949e" font-family="system-ui,sans-serif" font-size="10">2026-08-28</text>
<text x="1075.0" y="306" text-anchor="middle" fill="#8b949e" font-family="system-ui,sans-serif" font-size="10">2026-09-02</text>
<polyline points="72.0,275.1 100.7,274.4 129.3,273.5 158.0,269.4 186.6,265.2 215.3,263.2 243.9,260.7 272.6,259.5 301.3,257.7 329.9,256.1 358.6,255.6 387.2,254.5 415.9,250.8 444.5,236.6 473.2,228.9 501.9,225.4 530.5,222.2 559.2,220.2 587.8,218.6 616.5,217.0 645.1,212.6 673.8,211.5 702.5,210.8 731.1,210.5 759.8,209.9 788.4,209.4 817.1,208.9 845.7,208.3 874.4,208.0 903.1,207.6 931.7,207.6 960.4,207.1 989.0,207.1 1017.7,206.4 1046.3,206.4 1075.0,206.4" fill="none" stroke="#2f81f7" stroke-width="2" stroke-linecap="round" stroke-linejoin="round"/>
<line x1="72" x2="96" y1="322" y2="322" stroke="#2f81f7" stroke-width="3"/>
<text x="102" y="326" fill="#c9d1d9" font-family="system-ui,sans-serif" font-size="11">Views</text>
<polyline points="72.0,275.3 100.7,275.3 129.3,275.3 158.0,274.2 186.6,273.0 215.3,272.8 243.9,272.6 272.6,272.3 301.3,271.9 329.9,271.4 358.6,271.4 387.2,271.0 415.9,270.7 444.5,265.9 473.2,258.6 501.9,252.0 530.5,245.8 559.2,244.6 587.8,242.6 616.5,235.5 645.1,229.5 673.8,228.4 702.5,225.4 731.1,224.0 759.8,214.9 788.4,213.3 817.1,209.9 845.7,206.2 874.4,201.4 903.1,200.9 931.7,175.3 960.4,173.9 989.0,168.9 1017.7,74.1 1046.3,74.1 1075.0,74.1" fill="none" stroke="#3fb950" stroke-width="2" stroke-linecap="round" stroke-linejoin="round"/>
<line x1="277" x2="301" y1="322" y2="322" stroke="#3fb950" stroke-width="3"/>
<text x="307" y="326" fill="#c9d1d9" font-family="system-ui,sans-serif" font-size="11">Clones</text>
</svg>
