<svg xmlns="http://www.w3.org/2000/svg" width="1100" height="330" viewBox="0 0 1100 330" role="img" aria-label="All-time tracked traffic">
<rect width="100%" height="100%" fill="#0d1117" rx="10"/>
<text x="72" y="27" fill="#f0f6fc" font-family="system-ui,sans-serif" font-size="18" font-weight="600">All-time tracked traffic</text>
<text x="72" y="47" fill="#8b949e" font-family="system-ui,sans-serif" font-size="12">Cumulative stored views and clones since 2026-07-29</text>
<line x1="72" x2="1075" y1="276.0" y2="276.0" stroke="#21262d"/>
<text x="64" y="280.0" text-anchor="end" fill="#8b949e" font-family="system-ui,sans-serif" font-size="11">0</text>
<line x1="72" x2="1075" y1="221.5" y2="221.5" stroke="#21262d"/>
<text x="64" y="225.5" text-anchor="end" fill="#8b949e" font-family="system-ui,sans-serif" font-size="11">247</text>
<line x1="72" x2="1075" y1="167.0" y2="167.0" stroke="#21262d"/>
<text x="64" y="171.0" text-anchor="end" fill="#8b949e" font-family="system-ui,sans-serif" font-size="11">495</text>
<line x1="72" x2="1075" y1="112.5" y2="112.5" stroke="#21262d"/>
<text x="64" y="116.5" text-anchor="end" fill="#8b949e" font-family="system-ui,sans-serif" font-size="11">742</text>
<line x1="72" x2="1075" y1="58.0" y2="58.0" stroke="#21262d"/>
<text x="64" y="62.0" text-anchor="end" fill="#8b949e" font-family="system-ui,sans-serif" font-size="11">989</text>
<text x="72.0" y="306" text-anchor="middle" fill="#8b949e" font-family="system-ui,sans-serif" font-size="10">2026-07-29</text>
<text x="226.3" y="306" text-anchor="middle" fill="#8b949e" font-family="system-ui,sans-serif" font-size="10">2026-08-04</text>
<text x="354.9" y="306" text-anchor="middle" fill="#8b949e" font-family="system-ui,sans-serif" font-size="10">2026-08-09</text>
<text x="509.2" y="306" text-anchor="middle" fill="#8b949e" font-family="system-ui,sans-serif" font-size="10">2026-08-15</text>
<text x="637.8" y="306" text-anchor="middle" fill="#8b949e" font-family="system-ui,sans-serif" font-size="10">2026-08-20</text>
<text x="792.1" y="306" text-anchor="middle" fill="#8b949e" font-family="system-ui,sans-serif" font-size="10">2026-08-26</text>
<text x="920.7" y="306" text-anchor="middle" fill="#8b949e" font-family="system-ui,sans-serif" font-size="10">2026-08-31</text>
<text x="1075.0" y="306" text-anchor="middle" fill="#8b949e" font-family="system-ui,sans-serif" font-size="10">2026-09-06</text>
<polyline points="72.0,275.1 97.7,274.5 123.4,273.6 149.2,269.6 174.9,265.6 200.6,263.7 226.3,261.2 252.0,260.1 277.7,258.4 303.5,256.8 329.2,256.4 354.9,255.3 380.6,251.8 406.3,238.1 432.1,230.6 457.8,227.3 483.5,224.2 509.2,222.2 534.9,220.7 560.6,219.1 586.4,215.0 612.1,213.9 637.8,213.2 663.5,213.0 689.2,212.3 714.9,211.9 740.7,211.4 766.4,210.8 792.1,210.6 817.8,210.1 843.5,210.1 869.3,209.7 895.0,209.7 920.7,209.0 946.4,208.8 972.1,208.6 997.8,208.3 1023.6,207.7 1049.3,206.1 1075.0,206.1" fill="none" stroke="#2f81f7" stroke-width="2" stroke-linecap="round" stroke-linejoin="round"/>
<line x1="72" x2="96" y1="322" y2="322" stroke="#2f81f7" stroke-width="3"/>
<text x="102" y="326" fill="#c9d1d9" font-family="system-ui,sans-serif" font-size="11">Views</text>
<polyline points="72.0,275.3 97.7,275.3 123.4,275.3 149.2,274.2 174.9,273.1 200.6,272.9 226.3,272.7 252.0,272.5 277.7,272.0 303.5,271.6 329.2,271.6 354.9,271.2 380.6,270.9 406.3,266.3 432.1,259.3 457.8,252.9 483.5,246.9 509.2,245.8 534.9,243.8 560.6,237.0 586.4,231.3 612.1,230.2 637.8,227.3 663.5,226.0 689.2,217.2 714.9,215.6 740.7,212.3 766.4,208.8 792.1,204.2 817.8,203.7 843.5,179.0 869.3,177.7 895.0,172.9 920.7,81.6 946.4,79.7 972.1,78.3 997.8,77.2 1023.6,76.1 1049.3,74.1 1075.0,74.1" fill="none" stroke="#3fb950" stroke-width="2" stroke-linecap="round" stroke-linejoin="round"/>
<line x1="277" x2="301" y1="322" y2="322" stroke="#3fb950" stroke-width="3"/>
<text x="307" y="326" fill="#c9d1d9" font-family="system-ui,sans-serif" font-size="11">Clones</text>
</svg>
