<svg xmlns="http://www.w3.org/2000/svg" width="1100" height="330" viewBox="0 0 1100 330" role="img" aria-label="All-time tracked traffic">
<rect width="100%" height="100%" fill="#0d1117" rx="10"/>
<text x="72" y="27" fill="#f0f6fc" font-family="system-ui,sans-serif" font-size="18" font-weight="600">All-time tracked traffic</text>
<text x="72" y="47" fill="#8b949e" font-family="system-ui,sans-serif" font-size="12">Cumulative stored views and clones since 2026-07-29</text>
<line x1="72" x2="1075" y1="276.0" y2="276.0" stroke="#21262d"/>
<text x="64" y="280.0" text-anchor="end" fill="#8b949e" font-family="system-ui,sans-serif" font-size="11">0</text>
<line x1="72" x2="1075" y1="221.5" y2="221.5" stroke="#21262d"/>
<text x="64" y="225.5" text-anchor="end" fill="#8b949e" font-family="system-ui,sans-serif" font-size="11">379</text>
<line x1="72" x2="1075" y1="167.0" y2="167.0" stroke="#21262d"/>
<text x="64" y="171.0" text-anchor="end" fill="#8b949e" font-family="system-ui,sans-serif" font-size="11">759</text>
<line x1="72" x2="1075" y1="112.5" y2="112.5" stroke="#21262d"/>
<text x="64" y="116.5" text-anchor="end" fill="#8b949e" font-family="system-ui,sans-serif" font-size="11">1,138</text>
<line x1="72" x2="1075" y1="58.0" y2="58.0" stroke="#21262d"/>
<text x="64" y="62.0" text-anchor="end" fill="#8b949e" font-family="system-ui,sans-serif" font-size="11">1,517</text>
<text x="72.0" y="306" text-anchor="middle" fill="#8b949e" font-family="system-ui,sans-serif" font-size="10">2026-07-29</text>
<text x="222.4" y="306" text-anchor="middle" fill="#8b949e" font-family="system-ui,sans-serif" font-size="10">2026-08-07</text>
<text x="356.2" y="306" text-anchor="middle" fill="#8b949e" font-family="system-ui,sans-serif" font-size="10">2026-08-15</text>
<text x="506.6" y="306" text-anchor="middle" fill="#8b949e" font-family="system-ui,sans-serif" font-size="10">2026-08-24</text>
<text x="640.4" y="306" text-anchor="middle" fill="#8b949e" font-family="system-ui,sans-serif" font-size="10">2026-09-01</text>
<text x="790.8" y="306" text-anchor="middle" fill="#8b949e" font-family="system-ui,sans-serif" font-size="10">2026-09-10</text>
<text x="924.5" y="306" text-anchor="middle" fill="#8b949e" font-family="system-ui,sans-serif" font-size="10">2026-09-18</text>
<text x="1075.0" y="306" text-anchor="middle" fill="#8b949e" font-family="system-ui,sans-serif" font-size="10">2026-09-27</text>
<polyline points="72.0,275.4 88.7,275.0 105.4,274.4 122.2,271.8 138.9,269.2 155.6,268.0 172.3,266.4 189.0,265.7 205.7,264.5 222.4,263.5 239.2,263.2 255.9,262.5 272.6,260.2 289.3,251.3 306.0,246.4 322.8,244.2 339.5,242.2 356.2,240.9 372.9,239.9 389.6,238.9 406.3,236.2 423.1,235.5 439.8,235.1 456.5,234.9 473.2,234.5 489.9,234.2 506.6,233.9 523.4,233.5 540.1,233.3 556.8,233.0 573.5,233.0 590.2,232.8 606.9,232.8 623.6,232.3 640.4,232.2 657.1,232.0 673.8,231.9 690.5,231.5 707.2,230.5 724.0,229.7 740.7,226.0 757.4,224.6 774.1,224.4 790.8,224.1 807.5,223.3 824.2,222.7 841.0,220.8 857.7,220.5 874.4,218.8 891.1,218.0 907.8,217.5 924.5,216.8 941.3,216.8 958.0,215.9 974.7,214.9 991.4,214.2 1008.1,213.8 1024.8,213.8 1041.6,213.8 1058.3,213.8 1075.0,213.8" fill="none" stroke="#2f81f7" stroke-width="2" stroke-linecap="round" stroke-linejoin="round"/>
<line x1="72" x2="96" y1="322" y2="322" stroke="#2f81f7" stroke-width="3"/>
<text x="102" y="326" fill="#c9d1d9" font-family="system-ui,sans-serif" font-size="11">Views</text>
<polyline points="72.0,275.6 88.7,275.6 105.4,275.6 122.2,274.9 138.9,274.1 155.6,274.0 172.3,273.8 189.0,273.7 205.7,273.4 222.4,273.1 239.2,273.1 255.9,272.8 272.6,272.7 289.3,269.7 306.0,265.1 322.8,260.9 339.5,257.0 356.2,256.3 372.9,255.0 389.6,250.6 406.3,246.8 423.1,246.1 439.8,244.2 456.5,243.4 473.2,237.6 489.9,236.6 506.6,234.5 523.4,232.2 540.1,229.2 556.8,228.9 573.5,212.8 590.2,211.9 606.9,208.8 623.6,149.3 640.4,148.0 657.1,147.1 673.8,146.4 690.5,145.7 707.2,144.4 724.0,143.8 740.7,142.0 757.4,139.4 774.1,137.5 790.8,135.8 807.5,132.6 824.2,126.9 841.0,123.6 857.7,120.7 874.4,119.3 891.1,114.5 907.8,108.8 924.5,107.3 941.3,99.1 958.0,94.7 974.7,89.4 991.4,85.1 1008.1,74.1 1024.8,74.1 1041.6,74.1 1058.3,74.1 1075.0,74.1" fill="none" stroke="#3fb950" stroke-width="2" stroke-linecap="round" stroke-linejoin="round"/>
<line x1="277" x2="301" y1="322" y2="322" stroke="#3fb950" stroke-width="3"/>
<text x="307" y="326" fill="#c9d1d9" font-family="system-ui,sans-serif" font-size="11">Clones</text>
</svg>
