<svg xmlns="http://www.w3.org/2000/svg" width="1100" height="330" viewBox="0 0 1100 330" role="img" aria-label="Daily repository traffic">
<rect width="100%" height="100%" fill="#0d1117" rx="10"/>
<text x="72" y="27" fill="#f0f6fc" font-family="system-ui,sans-serif" font-size="18" font-weight="600">Daily repository traffic</text>
<text x="72" y="47" fill="#8b949e" font-family="system-ui,sans-serif" font-size="12">Exact stored GitHub daily buckets from 2026-07-29 onward; gaps are not interpolated</text>
<line x1="72" x2="1075" y1="276.0" y2="276.0" stroke="#21262d"/>
<text x="64" y="280.0" text-anchor="end" fill="#8b949e" font-family="system-ui,sans-serif" font-size="11">0</text>
<line x1="72" x2="1075" y1="221.5" y2="221.5" stroke="#21262d"/>
<text x="64" y="225.5" text-anchor="end" fill="#8b949e" font-family="system-ui,sans-serif" font-size="11">112</text>
<line x1="72" x2="1075" y1="167.0" y2="167.0" stroke="#21262d"/>
<text x="64" y="171.0" text-anchor="end" fill="#8b949e" font-family="system-ui,sans-serif" font-size="11">224</text>
<line x1="72" x2="1075" y1="112.5" y2="112.5" stroke="#21262d"/>
<text x="64" y="116.5" text-anchor="end" fill="#8b949e" font-family="system-ui,sans-serif" font-size="11">335</text>
<line x1="72" x2="1075" y1="58.0" y2="58.0" stroke="#21262d"/>
<text x="64" y="62.0" text-anchor="end" fill="#8b949e" font-family="system-ui,sans-serif" font-size="11">447</text>
<text x="72.0" y="306" text-anchor="middle" fill="#8b949e" font-family="system-ui,sans-serif" font-size="10">2026-07-29</text>
<text x="205.7" y="306" text-anchor="middle" fill="#8b949e" font-family="system-ui,sans-serif" font-size="10">2026-08-04</text>
<text x="361.8" y="306" text-anchor="middle" fill="#8b949e" font-family="system-ui,sans-serif" font-size="10">2026-08-11</text>
<text x="495.5" y="306" text-anchor="middle" fill="#8b949e" font-family="system-ui,sans-serif" font-size="10">2026-08-17</text>
<text x="651.5" y="306" text-anchor="middle" fill="#8b949e" font-family="system-ui,sans-serif" font-size="10">2026-08-24</text>
<text x="785.2" y="306" text-anchor="middle" fill="#8b949e" font-family="system-ui,sans-serif" font-size="10">2026-08-30</text>
<text x="941.3" y="306" text-anchor="middle" fill="#8b949e" font-family="system-ui,sans-serif" font-size="10">2026-09-06</text>
<text x="1075.0" y="306" text-anchor="middle" fill="#8b949e" font-family="system-ui,sans-serif" font-size="10">2026-09-12</text>
<polyline points="72.0,274.0 94.3,274.5 116.6,274.0 138.9,267.2 161.2,267.2 183.4,271.6 205.7,270.6 228.0,273.6 250.3,272.1 272.6,272.6 294.9,275.0 317.2,273.6 339.5,268.2 361.8,245.8 384.0,259.4 406.3,268.7 428.6,269.2 450.9,271.6 473.2,272.6 495.5,272.6 517.8,266.7 540.1,273.6 562.4,274.5 584.6,275.5 606.9,274.5 629.2,275.0 651.5,275.0 673.8,274.5 696.1,275.5 718.4,275.0 740.7,276.0 763.0,275.0 785.2,276.0 807.5,274.5 829.8,275.5 852.1,275.5 874.4,275.5 896.7,274.5 919.0,272.6 941.3,273.6 963.6,263.3 985.8,271.1 1008.1,275.5 1030.4,275.0" fill="none" stroke="#2f81f7" stroke-width="2" stroke-linecap="round" stroke-linejoin="round"/>
<line x1="72" x2="96" y1="322" y2="322" stroke="#2f81f7" stroke-width="3"/>
<text x="102" y="326" fill="#c9d1d9" font-family="system-ui,sans-serif" font-size="11">Views</text>
<polyline points="72.0,274.5 94.3,276.0 116.6,276.0 138.9,273.6 161.2,273.6 183.4,275.5 205.7,275.5 228.0,275.5 250.3,275.0 272.6,275.0 294.9,276.0 317.2,275.0 339.5,275.5 361.8,265.8 384.0,260.4 406.3,261.9 428.6,262.8 450.9,273.6 473.2,271.6 495.5,260.9 517.8,263.3 540.1,273.6 562.4,269.7 584.6,273.1 606.9,256.5 629.2,272.6 651.5,268.7 673.8,268.2 696.1,265.8 718.4,275.0 740.7,221.4 763.0,273.1 785.2,265.3 807.5,74.1 829.8,271.6 852.1,273.1 874.4,273.6 896.7,273.6 919.0,271.6 941.3,274.0 963.6,269.7 985.8,267.2 1008.1,269.7 1030.4,270.1" fill="none" stroke="#3fb950" stroke-width="2" stroke-linecap="round" stroke-linejoin="round"/>
<line x1="277" x2="301" y1="322" y2="322" stroke="#3fb950" stroke-width="3"/>
<text x="307" y="326" fill="#c9d1d9" font-family="system-ui,sans-serif" font-size="11">Clones</text>
</svg>
