<svg xmlns="http://www.w3.org/2000/svg" width="1100" height="330" viewBox="0 0 1100 330" role="img" aria-label="All-time tracked traffic">
<rect width="100%" height="100%" fill="#0d1117" rx="10"/>
<text x="72" y="27" fill="#f0f6fc" font-family="system-ui,sans-serif" font-size="18" font-weight="600">All-time tracked traffic</text>
<text x="72" y="47" fill="#8b949e" font-family="system-ui,sans-serif" font-size="12">Cumulative stored views and clones since 2026-07-29</text>
<line x1="72" x2="1075" y1="276.0" y2="276.0" stroke="#21262d"/>
<text x="64" y="280.0" text-anchor="end" fill="#8b949e" font-family="system-ui,sans-serif" font-size="11">0</text>
<line x1="72" x2="1075" y1="221.5" y2="221.5" stroke="#21262d"/>
<text x="64" y="225.5" text-anchor="end" fill="#8b949e" font-family="system-ui,sans-serif" font-size="11">247</text>
<line x1="72" x2="1075" y1="167.0" y2="167.0" stroke="#21262d"/>
<text x="64" y="171.0" text-anchor="end" fill="#8b949e" font-family="system-ui,sans-serif" font-size="11">495</text>
<line x1="72" x2="1075" y1="112.5" y2="112.5" stroke="#21262d"/>
<text x="64" y="116.5" text-anchor="end" fill="#8b949e" font-family="system-ui,sans-serif" font-size="11">742</text>
<line x1="72" x2="1075" y1="58.0" y2="58.0" stroke="#21262d"/>
<text x="64" y="62.0" text-anchor="end" fill="#8b949e" font-family="system-ui,sans-serif" font-size="11">989</text>
<text x="72.0" y="306" text-anchor="middle" fill="#8b949e" font-family="system-ui,sans-serif" font-size="10">2026-07-29</text>
<text x="222.4" y="306" text-anchor="middle" fill="#8b949e" font-family="system-ui,sans-serif" font-size="10">2026-08-04</text>
<text x="347.8" y="306" text-anchor="middle" fill="#8b949e" font-family="system-ui,sans-serif" font-size="10">2026-08-09</text>
<text x="498.3" y="306" text-anchor="middle" fill="#8b949e" font-family="system-ui,sans-serif" font-size="10">2026-08-15</text>
<text x="648.7" y="306" text-anchor="middle" fill="#8b949e" font-family="system-ui,sans-serif" font-size="10">2026-08-21</text>
<text x="799.2" y="306" text-anchor="middle" fill="#8b949e" font-family="system-ui,sans-serif" font-size="10">2026-08-27</text>
<text x="924.5" y="306" text-anchor="middle" fill="#8b949e" font-family="system-ui,sans-serif" font-size="10">2026-09-01</text>
<text x="1075.0" y="306" text-anchor="middle" fill="#8b949e" font-family="system-ui,sans-serif" font-size="10">2026-09-07</text>
<polyline points="72.0,275.1 97.1,274.5 122.2,273.6 147.2,269.6 172.3,265.6 197.4,263.7 222.4,261.2 247.5,260.1 272.6,258.4 297.7,256.8 322.8,256.4 347.8,255.3 372.9,251.8 398.0,238.1 423.1,230.6 448.1,227.3 473.2,224.2 498.3,222.2 523.4,220.7 548.4,219.1 573.5,215.0 598.6,213.9 623.6,213.2 648.7,213.0 673.8,212.3 698.9,211.9 724.0,211.4 749.0,210.8 774.1,210.6 799.2,210.1 824.2,210.1 849.3,209.7 874.4,209.7 899.5,209.0 924.5,208.8 949.6,208.6 974.7,208.3 999.8,207.7 1024.8,206.1 1049.9,206.1 1075.0,206.1" fill="none" stroke="#2f81f7" stroke-width="2" stroke-linecap="round" stroke-linejoin="round"/>
<line x1="72" x2="96" y1="322" y2="322" stroke="#2f81f7" stroke-width="3"/>
<text x="102" y="326" fill="#c9d1d9" font-family="system-ui,sans-serif" font-size="11">Views</text>
<polyline points="72.0,275.3 97.1,275.3 122.2,275.3 147.2,274.2 172.3,273.1 197.4,272.9 222.4,272.7 247.5,272.5 272.6,272.0 297.7,271.6 322.8,271.6 347.8,271.2 372.9,270.9 398.0,266.3 423.1,259.3 448.1,252.9 473.2,246.9 498.3,245.8 523.4,243.8 548.4,237.0 573.5,231.3 598.6,230.2 623.6,227.3 648.7,226.0 673.8,217.2 698.9,215.6 724.0,212.3 749.0,208.8 774.1,204.2 799.2,203.7 824.2,179.0 849.3,177.7 874.4,172.9 899.5,81.6 924.5,79.7 949.6,78.3 974.7,77.2 999.8,76.1 1024.8,74.1 1049.9,74.1 1075.0,74.1" fill="none" stroke="#3fb950" stroke-width="2" stroke-linecap="round" stroke-linejoin="round"/>
<line x1="277" x2="301" y1="322" y2="322" stroke="#3fb950" stroke-width="3"/>
<text x="307" y="326" fill="#c9d1d9" font-family="system-ui,sans-serif" font-size="11">Clones</text>
</svg>
