<svg xmlns="http://www.w3.org/2000/svg" width="1100" height="330" viewBox="0 0 1100 330" role="img" aria-label="All-time tracked traffic">
<rect width="100%" height="100%" fill="#0d1117" rx="10"/>
<text x="72" y="27" fill="#f0f6fc" font-family="system-ui,sans-serif" font-size="18" font-weight="600">All-time tracked traffic</text>
<text x="72" y="47" fill="#8b949e" font-family="system-ui,sans-serif" font-size="12">Cumulative stored views and clones since 2026-07-29</text>
<line x1="72" x2="1075" y1="276.0" y2="276.0" stroke="#21262d"/>
<text x="64" y="280.0" text-anchor="end" fill="#8b949e" font-family="system-ui,sans-serif" font-size="11">0</text>
<line x1="72" x2="1075" y1="221.5" y2="221.5" stroke="#21262d"/>
<text x="64" y="225.5" text-anchor="end" fill="#8b949e" font-family="system-ui,sans-serif" font-size="11">295</text>
<line x1="72" x2="1075" y1="167.0" y2="167.0" stroke="#21262d"/>
<text x="64" y="171.0" text-anchor="end" fill="#8b949e" font-family="system-ui,sans-serif" font-size="11">589</text>
<line x1="72" x2="1075" y1="112.5" y2="112.5" stroke="#21262d"/>
<text x="64" y="116.5" text-anchor="end" fill="#8b949e" font-family="system-ui,sans-serif" font-size="11">884</text>
<line x1="72" x2="1075" y1="58.0" y2="58.0" stroke="#21262d"/>
<text x="64" y="62.0" text-anchor="end" fill="#8b949e" font-family="system-ui,sans-serif" font-size="11">1,178</text>
<text x="72.0" y="306" text-anchor="middle" fill="#8b949e" font-family="system-ui,sans-serif" font-size="10">2026-07-29</text>
<text x="212.4" y="306" text-anchor="middle" fill="#8b949e" font-family="system-ui,sans-serif" font-size="10">2026-08-05</text>
<text x="352.8" y="306" text-anchor="middle" fill="#8b949e" font-family="system-ui,sans-serif" font-size="10">2026-08-12</text>
<text x="493.3" y="306" text-anchor="middle" fill="#8b949e" font-family="system-ui,sans-serif" font-size="10">2026-08-19</text>
<text x="653.7" y="306" text-anchor="middle" fill="#8b949e" font-family="system-ui,sans-serif" font-size="10">2026-08-27</text>
<text x="794.2" y="306" text-anchor="middle" fill="#8b949e" font-family="system-ui,sans-serif" font-size="10">2026-09-03</text>
<text x="934.6" y="306" text-anchor="middle" fill="#8b949e" font-family="system-ui,sans-serif" font-size="10">2026-09-10</text>
<text x="1075.0" y="306" text-anchor="middle" fill="#8b949e" font-family="system-ui,sans-serif" font-size="10">2026-09-17</text>
<polyline points="72.0,275.3 92.1,274.7 112.1,274.0 132.2,270.6 152.2,267.3 172.3,265.6 192.4,263.6 212.4,262.7 232.5,261.2 252.5,259.9 272.6,259.5 292.7,258.6 312.7,255.6 332.8,244.2 352.8,237.9 372.9,235.1 393.0,232.5 413.0,230.9 433.1,229.6 453.1,228.3 473.2,224.8 493.3,223.8 513.3,223.3 533.4,223.1 553.4,222.5 573.5,222.2 593.6,221.8 613.6,221.2 633.7,221.1 653.7,220.7 673.8,220.7 693.9,220.3 713.9,220.3 734.0,219.8 754.0,219.6 774.1,219.4 794.2,219.2 814.2,218.6 834.3,217.4 854.3,216.4 874.4,211.6 894.5,209.8 914.5,209.6 934.6,209.2 954.6,208.1 974.7,207.4 994.8,205.0 1014.8,204.6 1034.9,202.4 1054.9,202.4 1075.0,202.4" fill="none" stroke="#2f81f7" stroke-width="2" stroke-linecap="round" stroke-linejoin="round"/>
<line x1="72" x2="96" y1="322" y2="322" stroke="#2f81f7" stroke-width="3"/>
<text x="102" y="326" fill="#c9d1d9" font-family="system-ui,sans-serif" font-size="11">Views</text>
<polyline points="72.0,275.4 92.1,275.4 112.1,275.4 132.2,274.5 152.2,273.6 172.3,273.4 192.4,273.2 212.4,273.0 232.5,272.7 252.5,272.3 272.6,272.3 292.7,271.9 312.7,271.7 332.8,267.9 352.8,261.9 372.9,256.6 393.0,251.6 413.0,250.7 433.1,249.0 453.1,243.3 473.2,238.4 493.3,237.5 513.3,235.1 533.4,234.0 553.4,226.6 573.5,225.3 593.6,222.5 613.6,219.6 633.7,215.7 653.7,215.3 673.8,194.6 693.9,193.5 713.9,189.4 734.0,112.8 754.0,111.2 774.1,110.0 794.2,109.1 814.2,108.2 834.3,106.5 854.3,105.8 874.4,103.4 894.5,100.1 914.5,97.6 934.6,95.4 954.6,91.4 974.7,84.0 994.8,79.7 1014.8,76.0 1034.9,74.1 1054.9,74.1 1075.0,74.1" fill="none" stroke="#3fb950" stroke-width="2" stroke-linecap="round" stroke-linejoin="round"/>
<line x1="277" x2="301" y1="322" y2="322" stroke="#3fb950" stroke-width="3"/>
<text x="307" y="326" fill="#c9d1d9" font-family="system-ui,sans-serif" font-size="11">Clones</text>
</svg>
