<svg xmlns="http://www.w3.org/2000/svg" width="1100" height="330" viewBox="0 0 1100 330" role="img" aria-label="All-time tracked traffic">
<rect width="100%" height="100%" fill="#0d1117" rx="10"/>
<text x="72" y="27" fill="#f0f6fc" font-family="system-ui,sans-serif" font-size="18" font-weight="600">All-time tracked traffic</text>
<text x="72" y="47" fill="#8b949e" font-family="system-ui,sans-serif" font-size="12">Cumulative stored views and clones since 2026-07-29</text>
<line x1="72" x2="1075" y1="276.0" y2="276.0" stroke="#21262d"/>
<text x="64" y="280.0" text-anchor="end" fill="#8b949e" font-family="system-ui,sans-serif" font-size="11">0</text>
<line x1="72" x2="1075" y1="221.5" y2="221.5" stroke="#21262d"/>
<text x="64" y="225.5" text-anchor="end" fill="#8b949e" font-family="system-ui,sans-serif" font-size="11">238</text>
<line x1="72" x2="1075" y1="167.0" y2="167.0" stroke="#21262d"/>
<text x="64" y="171.0" text-anchor="end" fill="#8b949e" font-family="system-ui,sans-serif" font-size="11">476</text>
<line x1="72" x2="1075" y1="112.5" y2="112.5" stroke="#21262d"/>
<text x="64" y="116.5" text-anchor="end" fill="#8b949e" font-family="system-ui,sans-serif" font-size="11">714</text>
<line x1="72" x2="1075" y1="58.0" y2="58.0" stroke="#21262d"/>
<text x="64" y="62.0" text-anchor="end" fill="#8b949e" font-family="system-ui,sans-serif" font-size="11">953</text>
<text x="72.0" y="306" text-anchor="middle" fill="#8b949e" font-family="system-ui,sans-serif" font-size="10">2026-07-29</text>
<text x="219.5" y="306" text-anchor="middle" fill="#8b949e" font-family="system-ui,sans-serif" font-size="10">2026-08-03</text>
<text x="367.0" y="306" text-anchor="middle" fill="#8b949e" font-family="system-ui,sans-serif" font-size="10">2026-08-08</text>
<text x="514.5" y="306" text-anchor="middle" fill="#8b949e" font-family="system-ui,sans-serif" font-size="10">2026-08-13</text>
<text x="632.5" y="306" text-anchor="middle" fill="#8b949e" font-family="system-ui,sans-serif" font-size="10">2026-08-17</text>
<text x="780.0" y="306" text-anchor="middle" fill="#8b949e" font-family="system-ui,sans-serif" font-size="10">2026-08-22</text>
<text x="927.5" y="306" text-anchor="middle" fill="#8b949e" font-family="system-ui,sans-serif" font-size="10">2026-08-27</text>
<text x="1075.0" y="306" text-anchor="middle" fill="#8b949e" font-family="system-ui,sans-serif" font-size="10">2026-09-01</text>
<polyline points="72.0,275.1 101.5,274.4 131.0,273.5 160.5,269.4 190.0,265.2 219.5,263.2 249.0,260.7 278.5,259.5 308.0,257.7 337.5,256.1 367.0,255.6 396.5,254.5 426.0,250.8 455.5,236.6 485.0,228.9 514.5,225.4 544.0,222.2 573.5,220.2 603.0,218.6 632.5,217.0 662.0,212.6 691.5,211.5 721.0,210.8 750.5,210.5 780.0,209.9 809.5,209.4 839.0,208.9 868.5,208.3 898.0,208.0 927.5,207.6 957.0,207.6 986.5,207.1 1016.0,207.1 1045.5,206.4 1075.0,206.4" fill="none" stroke="#2f81f7" stroke-width="2" stroke-linecap="round" stroke-linejoin="round"/>
<line x1="72" x2="96" y1="322" y2="322" stroke="#2f81f7" stroke-width="3"/>
<text x="102" y="326" fill="#c9d1d9" font-family="system-ui,sans-serif" font-size="11">Views</text>
<polyline points="72.0,275.3 101.5,275.3 131.0,275.3 160.5,274.2 190.0,273.0 219.5,272.8 249.0,272.6 278.5,272.3 308.0,271.9 337.5,271.4 367.0,271.4 396.5,271.0 426.0,270.7 455.5,265.9 485.0,258.6 514.5,252.0 544.0,245.8 573.5,244.6 603.0,242.6 632.5,235.5 662.0,229.5 691.5,228.4 721.0,225.4 750.5,224.0 780.0,214.9 809.5,213.3 839.0,209.9 868.5,206.2 898.0,201.4 927.5,200.9 957.0,175.3 986.5,173.9 1016.0,168.9 1045.5,74.1 1075.0,74.1" fill="none" stroke="#3fb950" stroke-width="2" stroke-linecap="round" stroke-linejoin="round"/>
<line x1="277" x2="301" y1="322" y2="322" stroke="#3fb950" stroke-width="3"/>
<text x="307" y="326" fill="#c9d1d9" font-family="system-ui,sans-serif" font-size="11">Clones</text>
</svg>
